# xmcd
#
# Track frame offsets: 
#        150
#        26073
#        47633
#        75433
#        102575
#        120253
#        141145
#        163473
#        184930
#        208783
#
# Disc length: 3172 seconds
#
# Revision: 0
# Processed by: cddbd v1.5.2PL0 Copyright (c) Steve Scherf et al.
# Submitted via: ExactAudioCopy v1.0b3
#
DISCID=890c620a
DTITLE=Ngoc Son - Em Ve Keo Mua
DYEAR=1994
DGENRE=
TTITLE0=Em con nho hay em da quen
TTITLE1=Em ve keo mua
TTITLE2=Tu tinh trong Xuan
TTITLE3=Ve duoi mai nha
TTITLE4=Em buoc vao doi toi
TTITLE5=Xuan yeu
TTITLE6=Yeu ai dam noi (Ngai ngung)
TTITLE7=Mua mua qua mau
TTITLE8=Cau tre ky niem
TTITLE9=Tet Cali Tet Saigon
EXTD=
EXTT0=
EXTT1=
EXTT2=
EXTT3=
EXTT4=
EXTT5=
EXTT6=
EXTT7=
EXTT8=
EXTT9=
PLAYORDER=
